<svg xmlns="http://www.w3.org/2000/svg" viewBox="0 0 100.01 56"><defs><style>.cls-1{fill:none;}.cls-2{fill:#fff;}</style></defs><title>Artboard 2@100</title><g id="Logo"><rect class="cls-1" x="-1" y="1.63" width="100" height="52.75"/><path class="cls-2" d="M4.43,26.44a27.7,27.7,0,0,1,4.34-2.07V17.64a36,36,0,0,1,4.34-1.19V12.17a37,37,0,0,0-4.34,1.2v-4a55.72,55.72,0,0,1,6-1.53L13.62,3.47A40.85,40.85,0,0,0,4.43,6.6Z"/><path class="cls-2" d="M15.63,2.88s.9-.3,2.48-.65c.47-.11,1-.22,1.57-.33L19.63,22c-2.46.51-4,1-4,1Z"/><path class="cls-2" d="M38.89,16.07l-4.27,6c2.42,1.41,3.83,2.21,3.83,2.21L41.1,20.3l2.35,5C45,25.07,47.58,25,47.58,25l-4.09-7.78,4.09-5.32L43.74,9.63l-2.46,3.72L39.1,8.76l-4.2.07Z"/><path class="cls-2" d="M53.37,8.5a42.85,42.85,0,0,0-3-3.25L47.72,7.64a35.32,35.32,0,0,1,3,3.11Z"/><path class="cls-2" d="M48.61,25.92a34.83,34.83,0,0,0,4.1,1.18V12.22a33.81,33.81,0,0,1-4.12-.89Z"/><path class="cls-2" d="M62.55,14l0,15.08A33.55,33.55,0,0,1,58,28.23l0-15c-1.58-.31-3.13-.67-4.45-1.06L54.7,7.85a87.11,87.11,0,0,0,12,2.19v4.54s-1.74-.2-4.1-.57"/><path class="cls-2" d="M65,21.79c-.12,4.49,3.22,8.61,7.45,8.69s7.17-3.66,7.18-7.8c0-4.4-3.1-7.77-7.39-7.77S65.06,17.63,65,21.79m4,.87a3.13,3.13,0,0,1,3.19-3.55,3.66,3.66,0,0,1,3.37,3.55,3.42,3.42,0,0,1-3.12,3.65A3.65,3.65,0,0,1,69,22.66"/><path class="cls-2" d="M83.08,25.45,82.83,27a9.33,9.33,0,0,1,4.24-1.44A1.5,1.5,0,0,1,88.84,27a3.55,3.55,0,0,1-2.5,3.23,3.79,3.79,0,0,1-3.84-.87l-2.28,3a5.51,5.51,0,0,0,4.85,1.91c3.3-.1,7.79-3.73,7.89-7.89.06-1.9-.54-3-2.31-3.65.66-.28,2-1.59,2.06-4.42a4.5,4.5,0,0,0-.87-3.15s.87-.51,1.23-.68l.73-4.13c-1.34.9-4.19,3-5.32,3A10.39,10.39,0,0,0,85,14,7.36,7.36,0,0,0,80.33,21a4.43,4.43,0,0,0,2.75,4.5m1.09-5.11a3.24,3.24,0,0,1,2.9-3.11c1.45,0,2.17,1.12,1.7,2.82a3.26,3.26,0,0,1-2.72,2.61,2.05,2.05,0,0,1-1.88-2.32"/><path class="cls-2" d="M34.53,21.05l-2.2-3.71a5.14,5.14,0,0,1-3.62,1.37,3,3,0,0,1-2.22-1.2l8.44-5.07A8.12,8.12,0,0,0,28,7c-3.56-.08-6.58,3.24-6.58,7.72a7.82,7.82,0,0,0,6.55,8,8.65,8.65,0,0,0,6.59-1.65m-4.48-9.52-4.73,3.13a3.2,3.2,0,0,1,3-3.79,3,3,0,0,1,1.77.66"/><rect class="cls-2" x="2.31" y="39.85" width="93.6" height="1.29"/><path class="cls-2" d="M95.25,52.14H93.31v1.92h1.94Zm-4.48,1.92V49.73a3.15,3.15,0,0,0-.16-1A2.39,2.39,0,0,0,90,47.8a1.86,1.86,0,0,0-.72-.44,2.67,2.67,0,0,0-1-.16,3,3,0,0,0-1.12.2,2.88,2.88,0,0,0-.91.66,2,2,0,0,0-.77-.65,2.38,2.38,0,0,0-1-.21,2.34,2.34,0,0,0-.91.18,2.64,2.64,0,0,0-.79.52v-.62H81.19v6.78h1.69V50a1.39,1.39,0,0,1,.11-.58,1.11,1.11,0,0,1,.26-.38.91.91,0,0,1,.37-.21,1.4,1.4,0,0,1,.4-.07,1.34,1.34,0,0,1,.39.07.91.91,0,0,1,.37.21,1,1,0,0,1,.26.38,1.59,1.59,0,0,1,.1.58v4.1h1.69V49.92a1.4,1.4,0,0,1,.1-.56A1,1,0,0,1,87.2,49a1.07,1.07,0,0,1,.36-.2,1.18,1.18,0,0,1,.8,0,1,1,0,0,1,.36.21.89.89,0,0,1,.26.38,1.4,1.4,0,0,1,.1.58v4.1ZM79.45,47.84a2.33,2.33,0,0,0-.73-.5,2.56,2.56,0,0,0-.87-.14,2.26,2.26,0,0,0-1,.22,1.93,1.93,0,0,0-.7.51v-.65H74.49v6.78h1.69V50a1.4,1.4,0,0,1,.1-.56,1.3,1.3,0,0,1,.25-.39.87.87,0,0,1,.35-.22,1.09,1.09,0,0,1,.39-.08,1.07,1.07,0,0,1,.51.11,1.7,1.7,0,0,1,.39.3Zm-9.26,3.72a1.13,1.13,0,0,1-.25.86.93.93,0,0,1-.47.28,3.25,3.25,0,0,1-.59,0,1.06,1.06,0,0,1-.74-.22A.71.71,0,0,1,67.9,52a.67.67,0,0,1,.25-.57,1.1,1.1,0,0,1,.7-.2h1.34Zm1.69,2.5V49.6a2.18,2.18,0,0,0-.73-1.8A3.31,3.31,0,0,0,69,47.2a4.28,4.28,0,0,0-1.4.2,2.45,2.45,0,0,0-1,.74l1.08,1a1.6,1.6,0,0,1,.26-.26,1.31,1.31,0,0,1,.28-.17,1.59,1.59,0,0,1,.33-.09,1.8,1.8,0,0,1,.43,0,1.48,1.48,0,0,1,1,.26,1,1,0,0,1,.29.81V50h-1.6a2.88,2.88,0,0,0-1,.16,2.09,2.09,0,0,0-.73.42,1.87,1.87,0,0,0-.43.62,2.19,2.19,0,0,0-.14.77,2.55,2.55,0,0,0,.14.84,2,2,0,0,0,.42.68,2.35,2.35,0,0,0,1.73.6,2.41,2.41,0,0,0,1-.16,2.27,2.27,0,0,0,.71-.49v.58ZM65,47.28H63.19l-1.1,4.19L60.7,47.28H59.46l-1.38,4.19L57,47.28h-1.8l2.09,6.78h1.39l1.42-4.25,1.42,4.25H62.9ZM48.36,54.06h1v-1h-1Zm-2.75,0v-.58h-.45a.88.88,0,0,1-.73-.28,1.11,1.11,0,0,1-.24-.77V48.28h1.42v-.49H44.19v-2h-.66v2h-.86v.49h.86v4.14a1.82,1.82,0,0,0,.38,1.18,1.38,1.38,0,0,0,1.13.46Zm-6.29-8.45h.82v-.82h-.82Zm.08,8.45h.67V47.79H39.4Zm-6.2-5.75a1.85,1.85,0,0,0-.69-.47,2.31,2.31,0,0,0-.82-.13,2.59,2.59,0,0,0-1.06.23,1.82,1.82,0,0,0-.77.68v-.83h-.67v6.27h.67V50.2a2.48,2.48,0,0,1,.11-.73,1.73,1.73,0,0,1,.32-.6,1.71,1.71,0,0,1,1.89-.47,1.73,1.73,0,0,1,.54.39Zm-7.92,2.76v.81a1.55,1.55,0,0,1-.36,1.19,1.5,1.5,0,0,1-.73.41,4.5,4.5,0,0,1-.83.07,2.15,2.15,0,0,1-1.25-.29,1.1,1.1,0,0,1-.39-.93c0-.84.54-1.26,1.6-1.26Zm0,3h.66V49.77a2,2,0,0,0-.59-1.53,2.7,2.7,0,0,0-1.84-.53,3.66,3.66,0,0,0-1.3.2,2.17,2.17,0,0,0-.92.76l.48.42a1.72,1.72,0,0,1,.69-.61,2.46,2.46,0,0,1,1.05-.19,1.93,1.93,0,0,1,1.37.4,1.55,1.55,0,0,1,.4,1.14v.7h-2a2.44,2.44,0,0,0-1.61.48,1.62,1.62,0,0,0-.58,1.33,2,2,0,0,0,.12.68,1.44,1.44,0,0,0,.33.55,1.65,1.65,0,0,0,.73.44,3.78,3.78,0,0,0,1.12.13A3.29,3.29,0,0,0,24.45,54a2.26,2.26,0,0,0,.83-.55Zm-11-3.53q0-.22,0-.39c0-.1,0-.19,0-.28l.06-.24.09-.27a1.64,1.64,0,0,1,.65-.77,1.8,1.8,0,0,1,2,0,1.64,1.64,0,0,1,.65.77,2.24,2.24,0,0,1,.1.26,1,1,0,0,1,.06.25c0,.08,0,.18,0,.29s0,.24,0,.38Zm4.36.54v-.3A3.46,3.46,0,0,0,18,48.51a2.28,2.28,0,0,0-1.85-.8,2.22,2.22,0,0,0-1.85.84,3.75,3.75,0,0,0-.66,2.37,3.69,3.69,0,0,0,.68,2.4,2.44,2.44,0,0,0,2,.82,3.73,3.73,0,0,0,.7-.06,2.62,2.62,0,0,0,.58-.18,2.25,2.25,0,0,0,.51-.31,4.45,4.45,0,0,0,.47-.41l-.49-.39a2.79,2.79,0,0,1-.79.58,2.39,2.39,0,0,1-.94.17,1.85,1.85,0,0,1-1.53-.63,2.8,2.8,0,0,1-.52-1.84Zm-8.78,3,2-6.27h-.73l-1.6,5.49-1.8-5.49H7.1L5.31,53.28,3.7,47.79H3l2,6.27h.68l1.77-5.23L9.2,54.06Z"/><path class="cls-2" d="M96.79,6.22a1.14,1.14,0,0,0-.41,0h-.17v.77h.27a.7.7,0,0,0,.39-.1A.37.37,0,0,0,97,6.52a.32.32,0,0,0-.22-.3M95.53,8.36V5.7h1.28a1.33,1.33,0,0,1,.53.14.68.68,0,0,1,.35.64A.57.57,0,0,1,97.5,7a.86.86,0,0,1-.46.18,1,1,0,0,1,.39.15.73.73,0,0,1,.24.6v.32a.22.22,0,0,1,0,.08l0,.07H97A1.42,1.42,0,0,1,97,8a1,1,0,0,0,0-.32.31.31,0,0,0-.2-.2.65.65,0,0,0-.24,0h-.3v.94Zm-.36-2.72a2,2,0,0,0,0,2.81,1.93,1.93,0,0,0,1.4.58A1.88,1.88,0,0,0,98,8.44a2,2,0,0,0,0-2.8,1.95,1.95,0,0,0-2.81,0m3.09,3.11a2.36,2.36,0,0,1-1.69.68,2.32,2.32,0,0,1-1.7-.69A2.37,2.37,0,0,1,94.17,7a2.3,2.3,0,0,1,.75-1.75,2.37,2.37,0,0,1,1.65-.65,2.3,2.3,0,0,1,1.7.7A2.33,2.33,0,0,1,99,7a2.3,2.3,0,0,1-.72,1.73"/></g></svg>