<svg xmlns="http://www.w3.org/2000/svg" width="25.106" height="28.182" viewBox="0 0 25.106 28.182">
  <g id="Group_17" data-name="Group 17" transform="translate(543.716 276.539)">
    <g id="Group_16" data-name="Group 16">
      <path id="Path_17" data-name="Path 17" d="M-523.966-262.816c-.608.288-1.178.615-1.789.9-.246-.128-.492-.256-.733-.387.425-.225.859-.437,1.278-.666-.175-.252-.32-.534-.507-.783-.582.315-1.175.617-1.768.918-.405-.212-1.186-.632-1.235-.659a2.8,2.8,0,0,0,.149-.873,2.835,2.835,0,0,0-.122-.828c.024-.011.83-.436,1.252-.638.589.308,1.167.626,1.76.929.181-.251.338-.515.505-.776-.42-.226-.857-.443-1.27-.681.259-.115.49-.256.746-.37.6.3,1.171.628,1.772.927.164-.256.339-.508.5-.775-.416-.229-.853-.44-1.261-.678.369-.192.744-.37,1.095-.573-.169-.253-.326-.512-.487-.771-.378.171-.75.392-1.1.554-.006-.44.02-.9,0-1.329l-.985-.006c-.025.6-.008,1.243-.017,1.861-.251.117-.511.275-.75.373l.008-1.322-.992-.006-.011,1.856c-.342.164-.956.477-1.18.593a2.772,2.772,0,0,0-1.748-1.08l.006-.992c.582-.321,1.2-.609,1.777-.932-.166-.257-.327-.517-.487-.774-.44.2-.841.445-1.284.649l.005-.769c.59-.308,1.186-.613,1.777-.917-.158-.268-.327-.531-.5-.79-.419.218-.856.464-1.275.648l.008-1.295-.995-.005-.008,1.3c-.425-.22-.847-.445-1.27-.672-.172.255-.333.521-.505.776.581.325,1.182.628,1.769.947l0,.759c-.039,0-.094-.033-.156-.063-.352-.187-.748-.408-1.115-.592-.178.246-.326.519-.5.768.574.33,1.191.623,1.768.953l-.006,1a2.784,2.784,0,0,0-1.689,1.052c-.217-.113-.833-.432-1.159-.619l.011-1.847-.991-.005c-.027.42-.009.876-.02,1.31-.062.007-.114-.047-.173-.08-.179-.1-.4-.192-.569-.3l.011-1.851-.983-.005c-.023.422-.008.881-.017,1.318-.056.014-.1-.037-.144-.061-.352-.182-.739-.386-1.1-.576-.184.24-.335.513-.505.766.4.234.822.45,1.241.665-.419.227-.856.441-1.278.664v.009c.166.254.324.513.49.772.6-.3,1.189-.611,1.789-.916.231.142.492.26.73.4-.422.224-.859.439-1.278.666.178.248.317.535.507.773.594-.3,1.175-.61,1.771-.908.388.2,1.121.594,1.235.656a2.728,2.728,0,0,0-.131.823,2.711,2.711,0,0,0,.142.884c-.1.055-.847.442-1.246.636-.592-.308-1.179-.624-1.769-.939-.16.267-.341.516-.5.785.42.225.842.444,1.259.673-.245.128-.487.261-.744.378-.587-.306-1.165-.625-1.76-.926-.178.248-.339.516-.508.774l1.27.682s-2.885,2.253-3.313,2.454l0,0,3.808-1.663-.008,1.329.994.006.011-1.86c.251-.116.508-.275.744-.373l-.008,1.32,1,.006.011-1.852,1.186-.6a2.783,2.783,0,0,0,1.636,1.021l-.006,1.072c-.585.307-1.187.6-1.762.917.172.249.329.509.49.772.43-.194.847-.454,1.266-.631l-.005.768c-.6.3-1.18.6-1.762.909.181.247.318.535.505.771.419-.2.844-.448,1.251-.629l-.007,1.231.994.006c.006-.416-.009-.855.017-1.258.434.222.859.455,1.29.682.158-.267.336-.516.494-.785-.593-.325-1.212-.623-1.787-.962l.005-.761c.437.222.853.46,1.3.68.164-.264.342-.51.493-.784-.6-.314-1.206-.624-1.786-.955l.006-1.027a2.748,2.748,0,0,0,1.727-1.018c.206.107.845.44,1.188.63-.018.6-.016,1.226-.022,1.844l1,.006.008-1.329c.249.131.505.258.742.4l-.011,1.854.992.006.008-1.336c.381.193.748.4,1.126.592.164-.261.339-.513.5-.783-.366-.2-.759-.382-1.1-.6.43-.209.844-.433,1.266-.648C-523.637-262.3-523.806-262.556-523.966-262.816Zm-5.991-1.554a1.382,1.382,0,0,1-1.391,1.375,1.384,1.384,0,0,1-1.378-1.392,1.386,1.386,0,0,1,1.394-1.376A1.383,1.383,0,0,1-529.957-264.37Z" fill="#fff"/>
      <path id="Path_18" data-name="Path 18" d="M-543.716-272.29a26.53,26.53,0,0,1,5.754-2.989,21.383,21.383,0,0,1,3.148-.884,19.761,19.761,0,0,1,3.268-.369,20.018,20.018,0,0,1,3.3.185,21.6,21.6,0,0,1,3.235.714,27.064,27.064,0,0,1,6.036,2.714l.308.184.035.393h0a33.435,33.435,0,0,1-.057,3.585,34.413,34.413,0,0,1-.443,3.529,30.833,30.833,0,0,1-.827,3.468,26.16,26.16,0,0,1-1.26,3.35,22.143,22.143,0,0,1-1.757,3.141,19.214,19.214,0,0,1-2.29,2.8,18.065,18.065,0,0,1-2.8,2.3,18.853,18.853,0,0,1-3.191,1.707l-.248.1a9.167,9.167,0,0,1-1.15-.479q-.418-.215-.815-.454a16.2,16.2,0,0,1-1.521-1.041,18.128,18.128,0,0,1-2.638-2.5,19.8,19.8,0,0,1-2.091-2.924,22.027,22.027,0,0,1-1.542-3.208,21.851,21.851,0,0,0,1.854,3,19.172,19.172,0,0,0,2.317,2.613,17.136,17.136,0,0,0,2.737,2.1,14.882,14.882,0,0,0,1.5.81c.256.119,1.36.525,1.36.525a16.382,16.382,0,0,0,2.6-1.491,16.623,16.623,0,0,0,2.567-2.115,17.767,17.767,0,0,0,2.112-2.581,20.6,20.6,0,0,0,1.638-2.929,26.971,26.971,0,0,0,1.974-6.459,33,33,0,0,0,.424-3.375q.061-.849.08-1.7c.005-.283.007-.565,0-.847,0-.14-.005-.281-.009-.42l0-.048h0a25.452,25.452,0,0,0-5.257-2.691,20.573,20.573,0,0,0-3.038-.856,19.017,19.017,0,0,0-3.143-.358,19.083,19.083,0,0,0-3.175.175,20.762,20.762,0,0,0-3.124.686A26.393,26.393,0,0,0-543.716-272.29Z" fill="#fff"/>
    </g>
    <path id="Path_19" data-name="Path 19" d="M-531.464-275.379a18.2,18.2,0,0,1,3.011.343,19.641,19.641,0,0,1,2.91.82,24.416,24.416,0,0,1,5.035,2.577h0l0,.046c0,.134.006.268.008.4,0,.269,0,.54,0,.811q-.016.813-.076,1.627a31.592,31.592,0,0,1-.406,3.232,25.782,25.782,0,0,1-1.891,6.187,19.714,19.714,0,0,1-1.569,2.8,16.994,16.994,0,0,1-2.023,2.472,15.9,15.9,0,0,1-2.458,2.026,15.65,15.65,0,0,1-2.491,1.429" fill="#fff" opacity="0.1"/>
  </g>
</svg>
