<svg xmlns="http://www.w3.org/2000/svg" xmlns:xlink="http://www.w3.org/1999/xlink" width="125.053" height="71.722" viewBox="0 0 125.053 71.722">
  <defs>
    <filter id="Path_31" x="0" y="0" width="125.053" height="71.722" filterUnits="userSpaceOnUse">
      <feOffset dy="3" input="SourceAlpha"/>
      <feGaussianBlur stdDeviation="1.5" result="blur"/>
      <feFlood flood-opacity="0.251"/>
      <feComposite operator="in" in2="blur"/>
      <feComposite in="SourceGraphic"/>
    </filter>
  </defs>
  <g transform="matrix(1, 0, 0, 1, 0, 0)" filter="url(#Path_31)">
    <path id="Path_31-2" data-name="Path 31" d="M725.389,53.579a48.515,48.515,0,0,1,11.038-3.756l1.391,5.214a67.182,67.182,0,0,0-7.214,1.845v4.824a43.9,43.9,0,0,1,5.212-1.438V65.4a43.788,43.788,0,0,0-5.212,1.436v8.083a32.823,32.823,0,0,0-5.215,2.479Zm13.383,19.6s1.911-.557,4.867-1.173l.064-24.074c-.695.137-1.328.27-1.893.4-1.888.427-2.973.779-2.973.779Zm27.987-8.232-5.126,7.17c2.912,1.692,4.605,2.651,4.605,2.651l3.173-4.737,2.822,5.955c1.88-.228,4.958-.349,4.958-.349l-4.911-9.344,4.911-6.385-4.608-2.7-2.955,4.474-2.61-5.518-5.041.086Zm17.384-9.084a52.429,52.429,0,0,0-3.607-3.909l-3.173,2.866a41.936,41.936,0,0,1,3.653,3.738Zm-5.713,20.914a40.538,40.538,0,0,0,4.92,1.407l.011-17.856a41.439,41.439,0,0,1-4.951-1.071Zm16.742-14.3c2.829.438,4.919.687,4.919.687V57.707a105.561,105.561,0,0,1-14.34-2.628L784.4,60.252c1.576.471,3.446.9,5.337,1.274l-.018,18.014a38.391,38.391,0,0,0,5.415,1.037l.035-18.1m2.881,9.337c.13-4.995,3.5-8.255,8.688-8.255,5.158,0,8.889,4.042,8.878,9.326-.013,4.969-3.463,9.448-8.617,9.361-5.085-.087-9.091-5.042-8.949-10.431m4.865,1.043a4.379,4.379,0,0,0,4.13,4.391,4.1,4.1,0,0,0,3.737-4.391c-.115-2.035-1.715-4.259-4.044-4.259s-3.91,1.652-3.823,4.259M819.823,76.2a5.3,5.3,0,0,1-3.3-5.39,8.838,8.838,0,0,1,5.562-8.3,12.309,12.309,0,0,1,4.217-.957c1.363,0,4.779-2.477,6.386-3.562l-.87,4.954c-.431.216-1.478.826-1.478.826a5.407,5.407,0,0,1,1.047,3.779c-.118,3.4-1.684,4.968-2.479,5.3,2.132.8,2.843,2.1,2.779,4.391-.13,4.995-5.516,9.344-9.473,9.474a6.637,6.637,0,0,1-5.822-2.3l2.736-3.563a4.523,4.523,0,0,0,4.608,1.042,4.241,4.241,0,0,0,3-3.869,1.81,1.81,0,0,0-2.13-1.738,11.259,11.259,0,0,0-5.084,1.738l.3-1.824m1.3-6.129c0,1.852,1.082,2.708,2.259,2.781.9.056,2.642-.9,3.257-3.127.567-2.043-.295-3.391-2.04-3.391a3.9,3.9,0,0,0-3.476,3.737m-59.6.85a10.356,10.356,0,0,1-7.9,1.984,9.393,9.393,0,0,1-7.87-9.545c0-5.382,3.624-9.365,7.9-9.274,3.113.068,6.774,2.4,8.35,6.5l-10.132,6.088a3.589,3.589,0,0,0,2.67,1.438,6.182,6.182,0,0,0,4.344-1.642l2.638,4.448m-5.374-11.429a3.607,3.607,0,0,0-2.12-.786c-2.247,0-3.833,2.122-3.557,4.55l5.677-3.764m-33.3,35.551H835.225V93.5H722.849Zm111.582,15.515H832.1v-2.313h2.33Zm-7.409,0v-4.924a1.82,1.82,0,0,0-.117-.7,1.222,1.222,0,0,0-.312-.454,1.241,1.241,0,0,0-.438-.25,1.5,1.5,0,0,0-.953,0,1.282,1.282,0,0,0-.438.242,1.221,1.221,0,0,0-.321.446,1.66,1.66,0,0,0-.124.672v4.97h-2.033v-4.924a1.838,1.838,0,0,0-.116-.7,1.183,1.183,0,0,0-.751-.7,1.5,1.5,0,0,0-.953,0,1.226,1.226,0,0,0-.437.25,1.3,1.3,0,0,0-.321.454,1.725,1.725,0,0,0-.125.7v4.924H817.55v-8.144h1.985v.751a2.826,2.826,0,0,1,.937-.626,2.985,2.985,0,0,1,2.321.032,2.4,2.4,0,0,1,.931.781,3.224,3.224,0,0,1,1.094-.789,3.456,3.456,0,0,1,1.344-.243,3.352,3.352,0,0,1,1.133.187,2.315,2.315,0,0,1,.869.532,2.814,2.814,0,0,1,.7,1.071,3.823,3.823,0,0,1,.2,1.242v5.205Zm-13.1-5.923a2,2,0,0,0-.469-.36,1.31,1.31,0,0,0-.61-.124,1.347,1.347,0,0,0-.469.086,1.153,1.153,0,0,0-.422.273,1.428,1.428,0,0,0-.3.469,1.746,1.746,0,0,0-.117.672v4.908H809.5v-8.144h1.986v.781a2.39,2.39,0,0,1,.844-.617,2.79,2.79,0,0,1,1.2-.259,2.927,2.927,0,0,1,1.047.173,2.485,2.485,0,0,1,.875.594Zm-9.581,2.484h-1.61a1.3,1.3,0,0,0-.844.243.826.826,0,0,0-.3.68.866.866,0,0,0,.289.68,1.3,1.3,0,0,0,.883.257,3.532,3.532,0,0,0,.718-.062,1.13,1.13,0,0,0,.563-.329,1.4,1.4,0,0,0,.3-1.031Zm.046,3.439v-.7a2.659,2.659,0,0,1-.851.594,2.982,2.982,0,0,1-1.148.189,2.816,2.816,0,0,1-2.079-.719,2.307,2.307,0,0,1-.5-.813,2.919,2.919,0,0,1-.172-1.016,2.433,2.433,0,0,1,.172-.914,2.065,2.065,0,0,1,.516-.751,2.478,2.478,0,0,1,.867-.507,3.627,3.627,0,0,1,1.226-.187h1.923v-.407a1.227,1.227,0,0,0-.352-.977,1.77,1.77,0,0,0-1.164-.3,3,3,0,0,0-.516.038,1.766,1.766,0,0,0-.4.117,1.449,1.449,0,0,0-.336.2,2.208,2.208,0,0,0-.313.313l-1.3-1.266a3.116,3.116,0,0,1,1.258-.891,5.131,5.131,0,0,1,1.68-.235,4.018,4.018,0,0,1,2.6.719,2.629,2.629,0,0,1,.875,2.157v5.361Zm-8.8,0h-1.673l-1.7-5.111-1.7,5.111h-1.673l-2.5-8.144h2.157l1.312,5.033,1.657-5.033h1.485l1.672,5.033,1.314-5.033h2.141ZM778.13,109.4h1.156v1.156H778.13Zm-3.985,1.156a1.654,1.654,0,0,1-1.352-.554,2.134,2.134,0,0,1-.462-1.415v-4.97H771.3v-.594h1.031v-2.407h.8v2.407h1.7v.594h-1.7v4.986a1.37,1.37,0,0,0,.282.923,1.089,1.089,0,0,0,.875.327h.547v.7Zm-6.862-11.128h.985v.985h-.985Zm.094,3.595h.8v7.534h-.8Zm-8.018,1.2a1.717,1.717,0,0,0-1.422-.594,1.9,1.9,0,0,0-.861.187,1.926,1.926,0,0,0-.632.5,2.168,2.168,0,0,0-.391.727,2.794,2.794,0,0,0-.133.867v4.641h-.8v-7.534h.8v1a2.112,2.112,0,0,1,.93-.813,2.972,2.972,0,0,1,1.274-.281,2.828,2.828,0,0,1,.977.157,2.322,2.322,0,0,1,.836.562Zm-11.285,2.735q-1.923,0-1.922,1.517a1.309,1.309,0,0,0,.469,1.109,2.479,2.479,0,0,0,1.5.36,5.084,5.084,0,0,0,.993-.095,1.755,1.755,0,0,0,.883-.484,1.926,1.926,0,0,0,.421-1.438v-.969Zm2.344,2.845a2.7,2.7,0,0,1-.992.664,3.988,3.988,0,0,1-1.306.18,4.744,4.744,0,0,1-1.352-.156,1.991,1.991,0,0,1-.868-.532,1.738,1.738,0,0,1-.406-.656,2.379,2.379,0,0,1-.141-.813,1.954,1.954,0,0,1,.7-1.6,2.957,2.957,0,0,1,1.93-.57h2.438v-.845a1.844,1.844,0,0,0-.477-1.376,2.316,2.316,0,0,0-1.649-.469,2.985,2.985,0,0,0-1.258.219,2.13,2.13,0,0,0-.821.734l-.578-.5a2.512,2.512,0,0,1,1.1-.914,4.288,4.288,0,0,1,1.555-.243,3.226,3.226,0,0,1,2.22.641,2.347,2.347,0,0,1,.7,1.828v5.158h-.8Zm-8.736-3.485c-.011-.177-.021-.331-.032-.462s-.024-.247-.04-.351a1.65,1.65,0,0,0-.07-.3c-.032-.094-.074-.2-.125-.313a1.987,1.987,0,0,0-.774-.929,2.238,2.238,0,0,0-2.36,0,1.994,1.994,0,0,0-.773.929l-.109.329a1.92,1.92,0,0,0-.07.289q-.023.149-.047.335c-.015.125-.028.282-.038.47Zm-4.439.64a3.427,3.427,0,0,0,.618,2.211,2.227,2.227,0,0,0,1.836.759,2.727,2.727,0,0,0,1.133-.211,3.356,3.356,0,0,0,.946-.7l.594.469a5.473,5.473,0,0,1-.571.5,3.265,3.265,0,0,1-.609.367,2.91,2.91,0,0,1-.7.219,4.57,4.57,0,0,1-.845.07,2.923,2.923,0,0,1-2.383-.985,4.387,4.387,0,0,1-.821-2.875,4.5,4.5,0,0,1,.8-2.853,2.669,2.669,0,0,1,2.219-1.008,2.728,2.728,0,0,1,2.22.961,4.141,4.141,0,0,1,.8,2.713v.359Zm-6.128,3.595-2.125-6.284-2.126,6.284h-.813l-2.407-7.534h.875l1.922,6.6,2.157-6.6h.781l2.157,6.6,1.923-6.6h.874l-2.406,7.534Zm105.161-57.44a.369.369,0,0,1,.261.367.428.428,0,0,1-.165.378.807.807,0,0,1-.461.119h-.329v-.928h.2a1.44,1.44,0,0,1,.489.064m-.694,2.576V54.558h.179l.184.011a1.041,1.041,0,0,1,.291.052.388.388,0,0,1,.235.237,1.47,1.47,0,0,1,.052.392,2.112,2.112,0,0,0,.053.445h.8l-.02-.09c-.006-.033-.011-.063-.015-.1s0-.061,0-.093v-.288a.859.859,0,0,0-.294-.719,1.108,1.108,0,0,0-.461-.184,1.033,1.033,0,0,0,.552-.215.7.7,0,0,0,.227-.583.8.8,0,0,0-.426-.763,1.562,1.562,0,0,0-.631-.165c-.043,0-.262,0-.657-.006h-.887v3.2Zm-1.249-3.269a2.334,2.334,0,0,1,3.369,0,2.3,2.3,0,0,1,.691,1.668,2.329,2.329,0,0,1-.693,1.7,2.352,2.352,0,0,1-3.355,0,2.389,2.389,0,0,1-.011-3.365m3.7,3.736a2.9,2.9,0,0,0-2.018-4.964,2.831,2.831,0,0,0-1.982.784,2.766,2.766,0,0,0-.9,2.105,2.89,2.89,0,0,0,4.9,2.076" transform="translate(-718.35 -46.43)" fill="#fff"/>
  </g>
</svg>
