<svg xmlns="http://www.w3.org/2000/svg" xmlns:xlink="http://www.w3.org/1999/xlink" width="60" height="60.014" viewBox="0 0 60 60.014">
  <defs>
    <linearGradient id="linear-gradient" y1="0.5" x2="1" y2="0.5" gradientUnits="objectBoundingBox">
      <stop offset="0" stop-color="#fff"/>
      <stop offset="0.909" stop-color="#fff"/>
      <stop offset="1" stop-color="#fff"/>
    </linearGradient>
  </defs>
  <g id="Group_32" data-name="Group 32" transform="translate(-130 -863.986)">
    <g id="Logo_1" data-name="Logo – 1" transform="translate(133.738 863.986)">
      <g id="Group_8" data-name="Group 8" transform="translate(-888.421 171.967)">
        <g id="Group_10" data-name="Group 10" transform="translate(888.421 -171.967)">
          <g id="Group_9" data-name="Group 9">
            <g id="Group_8-2" data-name="Group 8">
              <path id="Path_2" data-name="Path 2" d="M940.652-161.133l-.244-2.728-2.207-1.286a52.712,52.712,0,0,0-11.591-5.087,43.046,43.046,0,0,0-6.329-1.363,40.2,40.2,0,0,0-5.721-.369,40.2,40.2,0,0,0-5.721.369,43.04,43.04,0,0,0-6.329,1.363,52.7,52.7,0,0,0-11.591,5.087l-2.207,1.286-.245,2.728a60.7,60.7,0,0,0,.111,6.694,62.233,62.233,0,0,0,.836,6.494,56.375,56.375,0,0,0,1.575,6.452,48.65,48.65,0,0,0,2.427,6.3c.522,1.111,1.089,2.192,1.693,3.237.312.582.634,1.153.968,1.708a38.153,38.153,0,0,0,4.124,5.636,35.771,35.771,0,0,0,5.253,4.863,32.661,32.661,0,0,0,3.063,2.047c.572.337,1.121.636,1.679.914l.106.051a19.408,19.408,0,0,0,2.6,1.041l1.285.367.367.083.373-.083,1.285-.367a19.434,19.434,0,0,0,2.6-1.041l.106-.051c.557-.278,1.106-.578,1.679-.914a32.741,32.741,0,0,0,3.063-2.047,35.764,35.764,0,0,0,5.253-4.863,38.132,38.132,0,0,0,4.124-5.636c.334-.555.656-1.126.968-1.708q.906-1.568,1.693-3.237a48.58,48.58,0,0,0,2.427-6.3,56.362,56.362,0,0,0,1.575-6.452,62.085,62.085,0,0,0,.836-6.494A60.656,60.656,0,0,0,940.652-161.133Z" transform="translate(-888.421 171.967)" fill="#ddd"/>
            </g>
          </g>
        </g>
        <g id="Group_13" data-name="Group 13" transform="translate(891.293 -166.998)">
          <g id="Group_12" data-name="Group 12">
            <g id="Group_11" data-name="Group 11" transform="translate(4.383 2.42)">
              <path id="Path_3" data-name="Path 3" d="M895.676-158.253a40.042,40.042,0,0,1,8.654-4.448,32.213,32.213,0,0,1,4.737-1.315,29.914,29.914,0,0,1,4.915-.549,30.158,30.158,0,0,1,4.962.275,32.659,32.659,0,0,1,4.867,1.062,40.963,40.963,0,0,1,9.08,4.039l.464.274.052.584h0a49.257,49.257,0,0,1-.087,5.335,50.519,50.519,0,0,1-.666,5.252,45.426,45.426,0,0,1-1.243,5.161,38.7,38.7,0,0,1-1.9,4.987,32.716,32.716,0,0,1-2.643,4.674,28.7,28.7,0,0,1-3.445,4.163,27.162,27.162,0,0,1-4.207,3.43,28.374,28.374,0,0,1-4.8,2.54l-.372.154a13.823,13.823,0,0,1-1.731-.714c-.42-.213-.827-.438-1.226-.676a24.294,24.294,0,0,1-2.287-1.548,27.15,27.15,0,0,1-3.97-3.723,29.359,29.359,0,0,1-3.144-4.351,32.689,32.689,0,0,1-2.321-4.774,32.475,32.475,0,0,0,2.789,4.469,28.61,28.61,0,0,0,3.486,3.889,25.826,25.826,0,0,0,4.118,3.122,22.6,22.6,0,0,0,2.255,1.2c.385.177,2.045.781,2.045.781a24.676,24.676,0,0,0,3.912-2.219,24.944,24.944,0,0,0,3.861-3.148,26.465,26.465,0,0,0,3.178-3.842,30.544,30.544,0,0,0,2.463-4.358,39.738,39.738,0,0,0,2.971-9.613,48.45,48.45,0,0,0,.637-5.023q.093-1.263.12-2.527.013-.632.006-1.261c0-.209-.007-.418-.013-.626l0-.071,0,0a38.514,38.514,0,0,0-7.909-4,31.092,31.092,0,0,0-4.569-1.273,28.892,28.892,0,0,0-4.729-.533,28.966,28.966,0,0,0-4.776.26,31.573,31.573,0,0,0-4.7,1.021A39.837,39.837,0,0,0,895.676-158.253Zm23.967,23.942c-.3.152-.6.311-.905.459.247.155.529.281.791.425-.113.191-.238.369-.355.554-.271-.139-.533-.282-.806-.419l-.005.945-.709,0,.008-1.312c-.17-.1-.352-.187-.531-.28l-.005.94-.718,0c0-.437,0-.88.016-1.3-.245-.134-.7-.37-.85-.446a1.97,1.97,0,0,1-1.236.721l0,.726c.415.234.847.454,1.278.676-.109.194-.236.368-.353.555-.319-.156-.617-.324-.929-.481l0,.538c.411.24.854.451,1.278.681-.112.19-.24.366-.352.555-.308-.16-.613-.325-.923-.482-.019.285-.008.6-.012.89l-.711,0,.005-.872c-.291.129-.6.3-.9.446-.134-.167-.232-.371-.361-.546.416-.219.834-.432,1.26-.643l0-.544c-.3.125-.6.309-.906.446-.115-.186-.227-.37-.35-.546.412-.224.842-.431,1.26-.648l0-.759a1.991,1.991,0,0,1-1.17-.722l-.849.425-.008,1.31-.718,0,.006-.934c-.169.069-.352.181-.532.263l-.008,1.316-.711,0,.006-.94-2.724,1.177,0,0c.306-.142,2.369-1.736,2.369-1.736l-.909-.482c.121-.183.236-.372.363-.548.426.213.839.438,1.259.655.183-.083.357-.177.532-.268-.3-.162-.6-.317-.9-.476.11-.191.24-.367.355-.556.422.223.841.446,1.265.664.285-.137.817-.411.891-.449a1.912,1.912,0,0,1-.1-.626,1.9,1.9,0,0,1,.094-.582c-.082-.044-.606-.324-.883-.464-.426.211-.842.43-1.267.642-.136-.168-.236-.371-.363-.547.3-.16.612-.313.914-.471-.17-.1-.357-.18-.523-.281-.428.216-.847.44-1.279.648-.119-.183-.231-.366-.35-.546v-.006c.3-.158.614-.309.914-.47-.3-.153-.6-.305-.887-.471.121-.179.229-.372.361-.542.256.135.533.279.785.407.034.017.063.054.1.043.006-.309,0-.634.012-.933l.7,0-.008,1.309c.124.077.279.145.407.213.042.023.079.062.124.057.008-.307,0-.63.014-.927l.709,0-.008,1.306c.233.133.673.358.829.438a2,2,0,0,1,1.208-.745l0-.709c-.413-.233-.854-.441-1.265-.675.127-.176.234-.369.361-.543.263.13.546.286.8.419.044.021.084.048.111.044l0-.537c-.419-.225-.85-.44-1.265-.669.123-.181.238-.369.361-.55.3.161.6.32.908.476l.005-.922.712,0-.006.916c.3-.13.612-.3.912-.459.121.184.242.37.355.559-.422.215-.849.431-1.271.65l0,.543c.317-.144.6-.314.918-.459.115.182.229.366.348.548-.412.229-.855.432-1.271.66l0,.7a1.979,1.979,0,0,1,1.25.764c.16-.083.6-.3.844-.42l.008-1.313.709,0-.006.935c.171-.069.357-.181.536-.263.007-.437-.005-.892.012-1.317l.705,0c.015.3,0,.629,0,.94.253-.114.519-.271.789-.392.115.184.227.366.348.545-.251.144-.519.27-.783.406.292.168.6.318.9.48-.112.189-.238.367-.355.549-.43-.212-.839-.442-1.267-.656-.184.08-.348.18-.534.261.3.168.608.322.908.482-.119.185-.232.371-.361.549-.424-.214-.837-.439-1.259-.657-.3.143-.878.443-.895.451a1.991,1.991,0,0,1,.087.586,1.94,1.94,0,0,1-.107.618c.036.019.594.316.883.466.424-.213.849-.427,1.265-.649.133.176.238.375.363.554-.3.162-.61.312-.914.471.172.093.348.183.524.274.437-.2.845-.436,1.279-.64C919.409-134.679,919.53-134.5,919.643-134.312Zm-5.616-2.636a.986.986,0,0,0-1,.974.985.985,0,0,0,.985.984.984.984,0,0,0,1-.973A.984.984,0,0,0,914.027-136.948Zm-12.773-7.324h24.911v-.378H901.253Zm-.824-5.319a8.146,8.146,0,0,1,1.291-.607v-1.98a11,11,0,0,1,1.29-.351v-1.256a11.029,11.029,0,0,0-1.29.352v-1.181a16.779,16.779,0,0,1,1.786-.452l-.345-1.277a12.089,12.089,0,0,0-2.732.92Zm3.313-1.033s.473-.136,1.205-.287l.016-5.9c-.172.033-.328.066-.468.1-.467.1-.736.191-.736.191Zm6.928-2.016-1.269,1.756c.721.414,1.14.649,1.14.649l.785-1.16.7,1.458c.465-.056,1.227-.086,1.227-.086l-1.216-2.288,1.216-1.564-1.14-.66-.732,1.1-.646-1.351-1.248.021Zm4.3-2.224a12.9,12.9,0,0,0-.893-.958l-.785.7a10.347,10.347,0,0,1,.9.916Zm-1.414,5.121a10.085,10.085,0,0,0,1.218.345l0-4.373a10.328,10.328,0,0,1-1.226-.262Zm4.144-3.5c.7.107,1.218.168,1.218.168v-1.335a26.412,26.412,0,0,1-3.55-.644l-.334,1.267c.39.115.853.22,1.321.312l0,4.411a9.627,9.627,0,0,0,1.34.254l.009-4.433m.713,2.287a1.989,1.989,0,0,1,2.151-2.022,2.181,2.181,0,0,1,2.2,2.284,2.173,2.173,0,0,1-2.133,2.292,2.426,2.426,0,0,1-2.215-2.554m1.2.255a1.078,1.078,0,0,0,1.022,1.075,1.008,1.008,0,0,0,.925-1.075,1.08,1.08,0,0,0-1-1.043.922.922,0,0,0-.947,1.043m4.185.82a1.3,1.3,0,0,1-.818-1.32,2.164,2.164,0,0,1,1.377-2.032,3.069,3.069,0,0,1,1.044-.235,5.346,5.346,0,0,0,1.581-.872l-.216,1.213c-.107.053-.366.2-.366.2a1.312,1.312,0,0,1,.259.925,1.416,1.416,0,0,1-.614,1.3.953.953,0,0,1,.688,1.075,2.679,2.679,0,0,1-2.345,2.32,1.652,1.652,0,0,1-1.441-.564l.677-.873a1.128,1.128,0,0,0,1.141.256,1.04,1.04,0,0,0,.742-.948.447.447,0,0,0-.527-.426,2.807,2.807,0,0,0-1.259.426l.075-.446m.323-1.5a.6.6,0,0,0,.559.681.956.956,0,0,0,.806-.766c.14-.5-.073-.83-.5-.83a.959.959,0,0,0-.861.915m-14.754.208a2.585,2.585,0,0,1-1.956.486,2.308,2.308,0,0,1-1.948-2.337,2.092,2.092,0,0,1,1.956-2.271,2.411,2.411,0,0,1,2.067,1.592l-2.508,1.491a.89.89,0,0,0,.661.352,1.539,1.539,0,0,0,1.075-.4l.653,1.089m-1.33-2.8a.9.9,0,0,0-.525-.192.943.943,0,0,0-.881,1.114l1.406-.922m19.834-1.561a.09.09,0,0,1,.065.09.1.1,0,0,1-.041.093.2.2,0,0,1-.114.029h-.081v-.227h.05a.355.355,0,0,1,.121.016m-.171.631v-.278h.044l.046,0a.256.256,0,0,1,.072.013.1.1,0,0,1,.058.058.344.344,0,0,1,.013.1.5.5,0,0,0,.013.109h.2l0-.022c0-.008,0-.016,0-.024s0-.015,0-.023v-.071a.209.209,0,0,0-.073-.176.272.272,0,0,0-.114-.045.26.26,0,0,0,.137-.053.17.17,0,0,0,.056-.143.2.2,0,0,0-.106-.187.388.388,0,0,0-.156-.04H927.5v.784Zm-.309-.8a.566.566,0,0,1,.419-.176.561.561,0,0,1,.415.176.563.563,0,0,1,.171.409.569.569,0,0,1-.172.415.568.568,0,0,1-.415.173.571.571,0,0,1-.416-.172.564.564,0,0,1-.173-.416.562.562,0,0,1,.17-.409m.917.915a.677.677,0,0,0,.214-.508.679.679,0,0,0-.209-.5.69.69,0,0,0-.5-.207.7.7,0,0,0-.491.192.674.674,0,0,0-.223.516.684.684,0,0,0,.206.5.694.694,0,0,0,.507.2.7.7,0,0,0,.5-.2" transform="translate(-895.676 164.577)" fill="#fff"/>
            </g>
          </g>
          <path id="Path_4" data-name="Path 4" d="M948.806-159.446c4.434.033,8.844.162,13.177.38s8.588.525,12.73.908c7.77.719,15.124,1.7,22.035,2.856l.01,0,.01.051c.018.148.03.3.036.446a7.3,7.3,0,0,1-.016.9,9,9,0,0,1-.335,1.8,12.022,12.022,0,0,1-1.775,3.583,24.267,24.267,0,0,1-8.276,6.857,52.193,52.193,0,0,1-6.863,3.109,85.285,85.285,0,0,1-8.854,2.74c-3.28.838-6.886,1.591-10.756,2.245-3.567.605-6.952,1.147-10.9,1.583" transform="translate(-948.791 166.998)" opacity="0.1" fill="url(#linear-gradient)"/>
        </g>
      </g>
    </g>
  </g>
</svg>
